<svg width="32.000000" height="32.000000" viewBox="0 0 32 32" fill="none" xmlns="http://www.w3.org/2000/svg" xmlns:xlink="http://www.w3.org/1999/xlink">
	<desc>
			Created with Pixso.
	</desc>
	<defs>
		<linearGradient id="paint_linear_60_1001_0" x1="16.000000" y1="9.000000" x2="16.000000" y2="23.000000" gradientUnits="userSpaceOnUse">
			<stop stop-color="#FFB0B0"/>
			<stop offset="1.000000" stop-color="#FF4343"/>
		</linearGradient>
	</defs>
	<rect rx="7.000000" width="32.000000" height="32.000000" fill="#FEF0F0" fill-opacity="1.000000"/>
	<path d="M23.6128 11.869C23.3647 11.3076 23.0066 10.7988 22.5591 10.3712C22.1111 9.94226 21.583 9.60144 21.0034 9.36719C20.4023 9.12341 19.7576 8.99854 19.1069 9C18.1938 9 17.303 9.24426 16.5288 9.70557C16.3435 9.8158 16.1675 9.93701 16.001 10.0691C15.8342 9.93701 15.6582 9.8158 15.4731 9.70557C14.699 9.24426 13.8081 9 12.895 9C12.2375 9 11.6003 9.12305 10.9985 9.36719C10.417 9.60242 9.89282 9.94067 9.44287 10.3712C8.99463 10.7983 8.63647 11.3073 8.38892 11.869C8.13159 12.4534 8 13.0737 8 13.7124C8 14.3147 8.12598 14.9424 8.37598 15.5811C8.58521 16.1146 8.88525 16.6682 9.26855 17.2272C9.87622 18.1117 10.7114 19.0343 11.7485 19.9695C13.4673 21.5198 15.1694 22.5907 15.2415 22.6342L15.6804 22.9091C15.875 23.0303 16.125 23.0303 16.3196 22.9091L16.7583 22.6342C16.8306 22.5889 18.5308 21.5198 20.2515 19.9695C21.2886 19.0343 22.1238 18.1117 22.7312 17.2272C23.1147 16.6682 23.4165 16.1146 23.624 15.5811C23.874 14.9424 24 14.3147 24 13.7124C24.002 13.0737 23.8704 12.4534 23.6128 11.869Z" fill="url(#paint_linear_60_1001_0)" fill-opacity="1.000000" fill-rule="nonzero"/>
</svg>
